<?xml version="1.0" encoding="utf-8" ?>
<svg baseProfile="full" height="920px" version="1.1" viewBox="0 0 1080 920" width="1080px" xmlns="http://www.w3.org/2000/svg" xmlns:ev="http://www.w3.org/2001/xml-events" xmlns:xlink="http://www.w3.org/1999/xlink"><defs><style type="text/css"><![CDATA[
        @import url('https://fonts.googleapis.com/css2?family=Inter:ital,wght@0,400;0,600;0,700;1,600;1,700&display=swap');
        text { font-family: 'Inter', Arial, sans-serif; }
        .bus-num { font-size: 16px; font-weight: 700; fill: #000000; }
        .sg-text { font-size: 16px; font-weight: 700; font-style: italic; fill: #009646; }
        .sg-sub { font-size: 13px; font-weight: 400; font-style: normal; fill: #009646; }
        .ibr-text { font-size: 17px; font-weight: 700; font-style: italic; fill: #0066CC; }
        .ibr-sub { font-size: 13.5px; font-weight: 400; font-style: normal; fill: #0066CC; }
        .legend-title { font-size: 15px; font-weight: 700; }
        .storage-text { font-size: 11px; font-weight: 600; font-style: italic; fill: #000000; text-anchor: middle; }
    ]]></style><marker id="arrow-load" markerHeight="8" markerWidth="8" orient="auto" refX="8" refY="4"><path d="M 0 0 L 8 4 L 0 8 z" fill="#000000" /></marker></defs><rect fill="#FFFFFF" height="920" width="1080" x="0" y="0" /><g id="legend-box"><rect fill="#FFFFFF" height="95" stroke="#000000" stroke-width="1.6" width="1000" x="40" y="35" /><text class="sg-text" text-anchor="middle" x="105" y="75">SG</text><text class="sg-sub" text-anchor="middle" x="105" y="98">(Slack)</text><circle cx="180" cy="82" fill="#FFE800" r="25" stroke="#000000" stroke-width="1.6" /><text fill="#000000" font-size="30px" font-weight="bold" x="173" y="93">~</text><text font-size="15px" font-style="italic" font-weight="bold" text-anchor="middle" x="270" y="75">Load</text><text font-size="13px" text-anchor="middle" x="270" y="98">(PQ)</text><line marker-end="url(#arrow-load)" stroke="#000000" stroke-width="2.4" x1="320" x2="320" y1="108" y2="60" /><text class="ibr-text" text-anchor="middle" x="480" y="75">IBR (GFM: PV,</text><text class="ibr-text" text-anchor="middle" x="480" y="98">GFL: PQ)</text><rect fill="#E1F8E1" height="48" stroke="#329632" stroke-dasharray="6,3.5" stroke-width="1.6" width="126" x="657.0" y="58.0" /><text class="storage-text" x="720" y="80">Energy Source</text><text class="storage-text" x="720" y="94">and/or Storge</text><line stroke="#000000" stroke-width="1.3" x1="783" x2="810" y1="82" y2="82" /><line stroke="#000000" stroke-width="1.3" x1="811.0" x2="820.5" y1="82" y2="82" /><line stroke="#000000" stroke-width="2.0" x1="820.5" x2="820.5" y1="68" y2="96" /><line stroke="#000000" stroke-width="2.0" x1="829.5" x2="829.5" y1="68" y2="96" /><line stroke="#000000" stroke-width="1.3" x1="829.5" x2="839.0" y1="82" y2="82" /><line stroke="#000000" stroke-width="1.3" x1="839" x2="865" y1="82" y2="82" /><rect fill="#CDE1FC" height="52" rx="3" ry="3" stroke="#78A5E6" stroke-width="1.4" width="52" x="866.0" y="56.0" /><line stroke="#000000" stroke-width="1.2" x1="870.0" x2="914.0" y1="104.0" y2="60.0" /><line stroke="#000000" stroke-width="1.2" x1="881" x2="881" y1="68" y2="84" /><line stroke="#000000" stroke-width="1.2" x1="872" x2="881" y1="76" y2="76" /><line stroke="#000000" stroke-width="1.2" x1="897" x2="910" y1="93" y2="93" /><polygon fill="#000000" points="903,87 903,99 912,93" /><line stroke="#000000" stroke-width="1.4" x1="912" x2="912" y1="87" y2="99" /></g><g id="busbars"><line stroke="#000000" stroke-linecap="square" stroke-width="4.5" x1="116.0" x2="188.0" y1="685.0" y2="685.0" /><text class="bus-num" text-anchor="middle" x="96.0" y="691.0">1</text><line stroke="#000000" stroke-linecap="square" stroke-width="4.5" x1="276.0" x2="460.0" y1="773.8" y2="773.8" /><text class="bus-num" text-anchor="middle" x="256.0" y="779.8">2</text><line stroke="#000000" stroke-linecap="square" stroke-width="4.5" x1="596.0" x2="948.0" y1="773.8" y2="773.8" /><text class="bus-num" text-anchor="middle" x="576.0" y="779.8">3</text><line stroke="#000000" stroke-linecap="square" stroke-width="4.5" x1="540.0" x2="740.0" y1="670.2" y2="670.2" /><text class="bus-num" text-anchor="middle" x="520.0" y="676.2">4</text><line stroke="#000000" stroke-linecap="square" stroke-width="4.5" x1="268.0" x2="380.0" y1="596.2" y2="596.2" /><text class="bus-num" text-anchor="middle" x="248.0" y="602.2">5</text><line stroke="#000000" stroke-linecap="square" stroke-width="4.5" x1="276.0" x2="484.0" y1="485.2" y2="485.2" /><text class="bus-num" text-anchor="middle" x="504.0" y="491.2">6</text><line stroke="#000000" stroke-linecap="square" stroke-width="4.5" x1="636.0" x2="780.0" y1="500.0" y2="500.0" /><text class="bus-num" text-anchor="middle" x="800.0" y="506.0">7</text><line stroke="#000000" stroke-linecap="square" stroke-width="4.5" x1="812.0" x2="812.0" y1="529.6" y2="455.6" /><text class="bus-num" text-anchor="middle" x="812.0" y="439.4">8</text><line stroke="#000000" stroke-linecap="square" stroke-width="4.5" x1="564.0" x2="748.0" y1="418.6" y2="418.6" /><text class="bus-num" text-anchor="middle" x="768.0" y="424.6">9</text><line stroke="#000000" stroke-linecap="square" stroke-width="4.5" x1="620.0" x2="716.0" y1="315.0" y2="315.0" /><text class="bus-num" text-anchor="middle" x="600.0" y="321.0">10</text><line stroke="#000000" stroke-linecap="square" stroke-width="4.5" x1="428.0" x2="556.0" y1="315.0" y2="315.0" /><text class="bus-num" text-anchor="middle" x="492.0" y="295.1">11</text><line stroke="#000000" stroke-linecap="square" stroke-width="4.5" x1="156.0" x2="292.0" y1="315.0" y2="315.0" /><text class="bus-num" text-anchor="middle" x="136.0" y="321.0">12</text><line stroke="#000000" stroke-linecap="square" stroke-width="4.5" x1="324.0" x2="444.0" y1="241.0" y2="241.0" /><text class="bus-num" text-anchor="middle" x="304.0" y="247.0">13</text><line stroke="#000000" stroke-linecap="square" stroke-width="4.5" x1="556.0" x2="724.0" y1="241.0" y2="241.0" /><text class="bus-num" text-anchor="middle" x="536.0" y="247.0">14</text></g><g id="transmission-lines"><polyline fill="none" points="140.0,685.0 140.0,744.2 276.0,744.2 276.0,773.8" stroke="#000000" stroke-width="1.6" /><polyline fill="none" points="172.0,685.0 172.0,625.8 268.0,625.8 268.0,596.2" stroke="#000000" stroke-width="1.6" /><polyline fill="none" points="460.0,762.7 596.0,762.7" stroke="#000000" stroke-width="1.6" /><polyline fill="none" points="364.0,773.8 364.0,714.6 628.0,714.6 628.0,670.2" stroke="#000000" stroke-width="1.6" /><polyline fill="none" points="332.0,773.8 332.0,596.2" stroke="#000000" stroke-width="1.6" /><polyline fill="none" points="692.0,773.8 692.0,670.2" stroke="#000000" stroke-width="1.6" /><polyline fill="none" points="564.0,670.2 564.0,618.4 348.0,618.4 348.0,596.2" stroke="#000000" stroke-width="1.6" /><polyline fill="none" points="396.0,485.2 396.0,403.8 516.0,403.8 516.0,315.0" stroke="#000000" stroke-width="1.6" /><polyline fill="none" points="284.0,485.2 284.0,366.8 220.0,366.8 220.0,315.0" stroke="#000000" stroke-width="1.6" /><polyline fill="none" points="380.0,485.2 380.0,241.0" stroke="#000000" stroke-width="1.6" /><polyline fill="none" points="548.0,315.0 548.0,340.9 628.0,340.9 628.0,315.0" stroke="#000000" stroke-width="1.6" /><polyline fill="none" points="660.0,418.6 660.0,315.0" stroke="#000000" stroke-width="1.6" /><polyline fill="none" points="700.0,418.6 700.0,241.0" stroke="#000000" stroke-width="1.6" /><polyline fill="none" points="268.0,315.0 268.0,278.0 332.0,278.0 332.0,241.0" stroke="#000000" stroke-width="1.6" /><polyline fill="none" points="444.0,241.0 556.0,241.0" stroke="#000000" stroke-width="1.6" /><polyline fill="none" points="756.0,500.0 756.0,492.6 760.0,492.6" stroke="#000000" stroke-width="1.6" /></g><g id="transformers"><line stroke="#000000" stroke-width="1.6" x1="300.0" x2="300.0" y1="596.2" y2="563.64" /><line stroke="#000000" stroke-width="1.6" x1="300.0" x2="300.0" y1="517.76" y2="485.2" /><circle cx="300.0" cy="551.8" fill="#FFFFFF" r="14" stroke="#000000" stroke-width="1.6" /><circle cx="300.0" cy="529.5999999999999" fill="#FFFFFF" r="14" stroke="#000000" stroke-width="1.6" /><line stroke="#000000" stroke-width="1.6" x1="604.0" x2="604.0" y1="670.2" y2="567.3399999999999" /><line stroke="#000000" stroke-width="1.6" x1="604.0" x2="604.0" y1="521.46" y2="418.6" /><circle cx="604.0" cy="555.5" fill="#FFFFFF" r="14" stroke="#000000" stroke-width="1.6" /><circle cx="604.0" cy="533.3" fill="#FFFFFF" r="14" stroke="#000000" stroke-width="1.6" /><line stroke="#000000" stroke-width="1.6" x1="668.0" x2="668.0" y1="500.0" y2="482.24" /><line stroke="#000000" stroke-width="1.6" x1="668.0" x2="668.0" y1="436.36" y2="418.6" /><circle cx="668.0" cy="470.40000000000003" fill="#FFFFFF" r="14" stroke="#000000" stroke-width="1.6" /><circle cx="668.0" cy="448.2" fill="#FFFFFF" r="14" stroke="#000000" stroke-width="1.6" /><line stroke="#000000" stroke-width="1.6" x1="700.0" x2="700.0" y1="670.2" y2="608.04" /><line stroke="#000000" stroke-width="1.6" x1="700.0" x2="700.0" y1="562.16" y2="500.0" /><circle cx="700.0" cy="596.2" fill="#FFFFFF" r="14" stroke="#000000" stroke-width="1.6" /><circle cx="700.0" cy="574.0" fill="#FFFFFF" r="14" stroke="#000000" stroke-width="1.6" /><line stroke="#000000" stroke-width="1.6" x1="760.0" x2="761.1999999999999" y1="492.6" y2="492.6" /><line stroke="#000000" stroke-width="1.6" x1="810.8" x2="812.0" y1="492.6" y2="492.6" /><circle cx="773.9999999999999" cy="492.6" fill="#FFFFFF" r="14" stroke="#000000" stroke-width="1.6" /><circle cx="798.0" cy="492.6" fill="#FFFFFF" r="14" stroke="#000000" stroke-width="1.6" /></g><g id="sources"><line stroke="#000000" stroke-width="1.6" x1="152.0" x2="152.0" y1="685.0" y2="650.8" /><circle cx="152.0" cy="625.8" fill="#FFE800" r="25" stroke="#000000" stroke-width="1.6" /><text fill="#000000" font-size="30px" font-weight="bold" x="145.0" y="635.8">~</text><text class="sg-text" x="188.0" y="621.8">SG₁</text><text class="sg-sub" x="188.0" y="643.8">(Slack)</text><line stroke="#000000" stroke-width="1.6" x1="316.0" x2="316.0" y1="773.8" y2="807.0" /><rect fill="#CDE1FC" height="52" rx="3" ry="3" stroke="#78A5E6" stroke-width="1.4" width="52" x="290.0" y="807.0" /><line stroke="#000000" stroke-width="1.2" x1="294.0" x2="338.0" y1="855.0" y2="811.0" /><line stroke="#000000" stroke-width="1.2" x1="305.0" x2="305.0" y1="819.0" y2="835.0" /><line stroke="#000000" stroke-width="1.2" x1="296.0" x2="305.0" y1="827.0" y2="827.0" /><line stroke="#000000" stroke-width="1.2" x1="321.0" x2="334.0" y1="844.0" y2="844.0" /><polygon fill="#000000" points="327.0,838.0 327.0,850.0 336.0,844.0" /><line stroke="#000000" stroke-width="1.4" x1="336.0" x2="336.0" y1="838.0" y2="850.0" /><line stroke="#000000" stroke-width="1.3" x1="290.0" x2="268.0" y1="833.0" y2="833.0" /><line stroke="#000000" stroke-width="1.3" x1="232.4" x2="241.9" y1="833.0" y2="833.0" /><line stroke="#000000" stroke-width="2.0" x1="241.9" x2="241.9" y1="819.0" y2="847.0" /><line stroke="#000000" stroke-width="2.0" x1="250.9" x2="250.9" y1="819.0" y2="847.0" /><line stroke="#000000" stroke-width="1.3" x1="250.9" x2="260.4" y1="833.0" y2="833.0" /><line stroke="#000000" stroke-width="1.3" x1="229.4" x2="187.0" y1="833.0" y2="833.0" /><rect fill="#E1F8E1" height="48" stroke="#329632" stroke-dasharray="6,3.5" stroke-width="1.6" width="126" x="61.0" y="809.0" /><text class="storage-text" x="124.0" y="831.0">Energy Source</text><text class="storage-text" x="124.0" y="845.0">and/or Storge</text><text class="ibr-text" x="352.0" y="829.0">IBR₁</text><text class="ibr-sub" x="352.0" y="851.0">(PQ)</text><line stroke="#000000" stroke-width="1.6" x1="716.0" x2="716.0" y1="773.8" y2="807.0" /><rect fill="#CDE1FC" height="52" rx="3" ry="3" stroke="#78A5E6" stroke-width="1.4" width="52" x="690.0" y="807.0" /><line stroke="#000000" stroke-width="1.2" x1="694.0" x2="738.0" y1="855.0" y2="811.0" /><line stroke="#000000" stroke-width="1.2" x1="705.0" x2="705.0" y1="819.0" y2="835.0" /><line stroke="#000000" stroke-width="1.2" x1="696.0" x2="705.0" y1="827.0" y2="827.0" /><line stroke="#000000" stroke-width="1.2" x1="721.0" x2="734.0" y1="844.0" y2="844.0" /><polygon fill="#000000" points="727.0,838.0 727.0,850.0 736.0,844.0" /><line stroke="#000000" stroke-width="1.4" x1="736.0" x2="736.0" y1="838.0" y2="850.0" /><line stroke="#000000" stroke-width="1.3" x1="690.0" x2="668.0" y1="833.0" y2="833.0" /><line stroke="#000000" stroke-width="1.3" x1="632.4" x2="641.9" y1="833.0" y2="833.0" /><line stroke="#000000" stroke-width="2.0" x1="641.9" x2="641.9" y1="819.0" y2="847.0" /><line stroke="#000000" stroke-width="2.0" x1="650.9" x2="650.9" y1="819.0" y2="847.0" /><line stroke="#000000" stroke-width="1.3" x1="650.9" x2="660.4" y1="833.0" y2="833.0" /><line stroke="#000000" stroke-width="1.3" x1="629.4" x2="587.0" y1="833.0" y2="833.0" /><rect fill="#E1F8E1" height="48" stroke="#329632" stroke-dasharray="6,3.5" stroke-width="1.6" width="126" x="461.0" y="809.0" /><text class="storage-text" x="524.0" y="831.0">Energy Source</text><text class="storage-text" x="524.0" y="845.0">and/or Storge</text><text class="ibr-text" x="752.0" y="829.0">IBR₂</text><text class="ibr-sub" x="752.0" y="851.0">(PQ)</text><line stroke="#000000" stroke-width="1.6" x1="324.0" x2="324.0" y1="485.2" y2="444.6" /><rect fill="#CDE1FC" height="52" rx="3" ry="3" stroke="#78A5E6" stroke-width="1.4" width="52" x="298.0" y="392.6" /><line stroke="#000000" stroke-width="1.2" x1="302.0" x2="346.0" y1="440.6" y2="396.6" /><line stroke="#000000" stroke-width="1.2" x1="313.0" x2="313.0" y1="404.6" y2="420.6" /><line stroke="#000000" stroke-width="1.2" x1="304.0" x2="313.0" y1="412.6" y2="412.6" /><line stroke="#000000" stroke-width="1.2" x1="329.0" x2="342.0" y1="429.6" y2="429.6" /><polygon fill="#000000" points="335.0,423.6 335.0,435.6 344.0,429.6" /><line stroke="#000000" stroke-width="1.4" x1="344.0" x2="344.0" y1="423.6" y2="435.6" /><line stroke="#000000" stroke-width="1.3" x1="298.0" x2="276.0" y1="418.6" y2="418.6" /><line stroke="#000000" stroke-width="1.3" x1="240.39999999999998" x2="249.89999999999998" y1="418.6" y2="418.6" /><line stroke="#000000" stroke-width="2.0" x1="249.89999999999998" x2="249.89999999999998" y1="404.6" y2="432.6" /><line stroke="#000000" stroke-width="2.0" x1="258.9" x2="258.9" y1="404.6" y2="432.6" /><line stroke="#000000" stroke-width="1.3" x1="258.9" x2="268.4" y1="418.6" y2="418.6" /><line stroke="#000000" stroke-width="1.3" x1="237.39999999999998" x2="195.0" y1="418.6" y2="418.6" /><rect fill="#E1F8E1" height="48" stroke="#329632" stroke-dasharray="6,3.5" stroke-width="1.6" width="126" x="69.0" y="394.6" /><text class="storage-text" x="132.0" y="416.6">Energy Source</text><text class="storage-text" x="132.0" y="430.6">and/or Storge</text><text class="ibr-text" text-anchor="middle" x="324.0" y="376.6">IBR₃</text><text class="ibr-sub" text-anchor="middle" x="324.0" y="394.6">(PQ)</text><line stroke="#000000" stroke-width="1.6" x1="812.0" x2="858.0" y1="492.6" y2="492.6" /><rect fill="#CDE1FC" height="52" rx="3" ry="3" stroke="#78A5E6" stroke-width="1.4" width="52" x="858.0" y="466.6" /><line stroke="#000000" stroke-width="1.2" x1="862.0" x2="906.0" y1="514.6" y2="470.6" /><line stroke="#000000" stroke-width="1.2" x1="873.0" x2="873.0" y1="478.6" y2="494.6" /><line stroke="#000000" stroke-width="1.2" x1="864.0" x2="873.0" y1="486.6" y2="486.6" /><line stroke="#000000" stroke-width="1.2" x1="889.0" x2="902.0" y1="503.6" y2="503.6" /><polygon fill="#000000" points="895.0,497.6 895.0,509.6 904.0,503.6" /><line stroke="#000000" stroke-width="1.4" x1="904.0" x2="904.0" y1="497.6" y2="509.6" /><line stroke="#000000" stroke-width="1.3" x1="884.0" x2="884.0" y1="518.6" y2="538.6" /><line stroke="#000000" stroke-width="1.3" x1="884.0" x2="884.0" y1="542.98" y2="552.48" /><line stroke="#000000" stroke-width="2.0" x1="870.0" x2="898.0" y1="552.48" y2="552.48" /><line stroke="#000000" stroke-width="2.0" x1="870.0" x2="898.0" y1="561.48" y2="561.48" /><line stroke="#000000" stroke-width="1.3" x1="884.0" x2="884.0" y1="561.48" y2="570.98" /><line stroke="#000000" stroke-width="1.3" x1="884.0" x2="884.0" y1="573.98" y2="601.8" /><rect fill="#E1F8E1" height="48" stroke="#329632" stroke-dasharray="6,3.5" stroke-width="1.6" width="126" x="821.0" y="601.8" /><text class="storage-text" x="884.0" y="623.8">Energy Source</text><text class="storage-text" x="884.0" y="637.8">and/or Storge</text><text class="ibr-text" text-anchor="middle" x="884.0" y="450.6">IBR₄</text><text class="ibr-sub" text-anchor="middle" x="884.0" y="468.6">(PQ)</text></g><g id="system-loads"><line marker-end="url(#arrow-load)" stroke="#000000" stroke-width="2.4" x1="412.0" x2="412.0" y1="773.8" y2="829.3" /><line marker-end="url(#arrow-load)" stroke="#000000" stroke-width="2.4" x1="828.0" x2="828.0" y1="773.8" y2="829.3" /><line marker-end="url(#arrow-load)" stroke="#000000" stroke-width="2.4" x1="908.0" x2="908.0" y1="773.8" y2="829.3" /><line marker-end="url(#arrow-load)" stroke="#000000" stroke-width="2.4" x1="700.0" x2="700.0" y1="670.2" y2="725.7" /><line marker-end="url(#arrow-load)" stroke="#000000" stroke-width="2.4" x1="308.0" x2="308.0" y1="596.2" y2="651.7" /><line marker-end="url(#arrow-load)" stroke="#000000" stroke-width="2.4" x1="436.0" x2="436.0" y1="485.2" y2="540.7" /><line marker-end="url(#arrow-load)" stroke="#000000" stroke-width="2.4" x1="604.0" x2="604.0" y1="418.6" y2="363.1" /><line marker-end="url(#arrow-load)" stroke="#000000" stroke-width="2.4" x1="668.0" x2="668.0" y1="315.0" y2="370.5" /><line marker-end="url(#arrow-load)" stroke="#000000" stroke-width="2.4" x1="460.0" x2="460.0" y1="315.0" y2="370.5" /><line marker-end="url(#arrow-load)" stroke="#000000" stroke-width="2.4" x1="172.0" x2="172.0" y1="315.0" y2="370.5" /><line marker-end="url(#arrow-load)" stroke="#000000" stroke-width="2.4" x1="372.0" x2="372.0" y1="241.0" y2="296.5" /><line marker-end="url(#arrow-load)" stroke="#000000" stroke-width="2.4" x1="684.0" x2="684.0" y1="241.0" y2="296.5" /></g></svg>